<svg width="1001" height="127" viewBox="0 0 1001 127" fill="none" xmlns="http://www.w3.org/2000/svg">
<path d="M1.31848 126.225V0.449219H127.095V126.225H1.31848ZM117.688 116.818V9.85634H10.7256V116.818H117.688Z" fill="#6162FF"/>
<path d="M126.645 0.899687V125.776H1.76822V0.899687H126.645ZM10.2757 117.269H118.137V9.40713H10.2757V117.269ZM127.544 0H0.86853V126.676H127.544V0ZM11.1753 10.3068H117.238V116.369H11.1753V10.3068Z" fill="#6162FF"/>
<path d="M88.8577 21.2319V45.277H103.33V21.2319H88.8577ZM98.5491 40.4672H93.7502V26.0453H98.5401L98.5491 40.4672Z" fill="#6162FF"/>
<path d="M88.8577 69.3247V93.3643H103.209V69.3247H88.8577ZM98.4285 88.56H93.635V74.1362H98.4195L98.4285 88.56Z" fill="#6162FF"/>
<path d="M25.0917 69.3247V93.3643H39.4489V69.3247H25.0917ZM34.6625 88.56H29.8762V74.1362H34.6625V88.56Z" fill="#6162FF"/>
<path d="M39.5191 40.4672V45.277H25.0917V40.4672H29.8996V26.0453H25.0917V21.2319H34.7093V40.4672H39.5191Z" fill="#6162FF"/>
<path d="M71.4596 50.0403V54.8483H57.0322V50.0403H61.8366V35.6129H57.0322V30.8032H66.6463V50.0403H71.4596Z" fill="#6162FF"/>
<path d="M71.3337 100.642V105.446H56.9117V100.642H61.7215V86.2142H56.9117V81.4062H66.5294V100.642H71.3337Z" fill="#6162FF"/>
<path d="M191.365 22.9785L191.719 13.4336L162.519 41.3612L162.165 50.9061L191.365 22.9785ZM169.66 15.9082H162.165V50.9061L169.66 42.2803V15.9082ZM191.719 13.4336L184.224 22.0593V48.4315H191.719V13.4336Z" fill="white"/>
<path d="M205.114 34.4323H230.001V28.1398H205.114V34.4323ZM225.9 15.9082V48.4315H233.395V15.9082H225.9ZM201.791 15.9082V48.4315H209.285V15.9082H201.791Z" fill="white"/>
<path d="M256.441 8.83789V55.5018H263.865V8.83789H256.441ZM240.674 32.1698C240.674 35.4693 241.452 38.4152 243.008 41.0077C244.61 43.553 246.873 45.5562 249.795 47.0174C252.718 48.4315 256.158 49.1385 260.118 49.1385C264.124 49.1385 267.589 48.4315 270.511 47.0174C273.433 45.5562 275.672 43.553 277.228 41.0077C278.83 38.4152 279.632 35.4693 279.632 32.1698C279.632 28.8232 278.83 25.8773 277.228 23.332C275.672 20.7867 273.433 18.807 270.511 17.3929C267.589 15.9317 264.124 15.2011 260.118 15.2011C256.158 15.2011 252.718 15.9317 249.795 17.3929C246.873 18.807 244.61 20.7867 243.008 23.332C241.452 25.8773 240.674 28.8232 240.674 32.1698ZM247.957 32.1698C247.957 30.143 248.405 28.3519 249.3 26.7964C250.243 25.2409 251.61 24.039 253.401 23.1906C255.239 22.3421 257.478 21.9179 260.118 21.9179C262.757 21.9179 264.973 22.3421 266.764 23.1906C268.602 24.039 269.969 25.2409 270.865 26.7964C271.807 28.3519 272.279 30.143 272.279 32.1698C272.279 34.1966 271.807 35.9878 270.865 37.5432C269.969 39.0516 268.602 40.2535 266.764 41.1491C264.973 41.9975 262.757 42.4217 260.118 42.4217C257.478 42.4217 255.239 41.9975 253.401 41.1491C251.61 40.2535 250.243 39.0516 249.3 37.5432C248.405 35.9878 247.957 34.1966 247.957 32.1698Z" fill="white"/>
<path d="M284.38 32.1698C284.38 35.4693 285.135 38.4152 286.643 41.0077C288.198 43.553 290.296 45.5562 292.935 47.0174C295.575 48.4315 298.568 49.1385 301.915 49.1385C305.261 49.1385 308.231 48.4315 310.823 47.0174C313.463 45.5562 315.56 43.553 317.116 41.0077C318.671 38.4152 319.449 35.4693 319.449 32.1698C319.449 28.8232 318.671 25.8773 317.116 23.332C315.56 20.7867 313.463 18.807 310.823 17.3929C308.231 15.9317 305.261 15.2011 301.915 15.2011C298.568 15.2011 295.575 15.9317 292.935 17.3929C290.296 18.807 288.198 20.7867 286.643 23.332C285.135 25.8773 284.38 28.8232 284.38 32.1698ZM292.228 32.1698C292.228 30.143 292.653 28.3519 293.501 26.7964C294.35 25.2409 295.504 24.039 296.966 23.1906C298.427 22.3421 300.076 21.9179 301.915 21.9179C303.706 21.9179 305.332 22.3421 306.793 23.1906C308.302 24.039 309.48 25.2409 310.328 26.7964C311.177 28.3519 311.601 30.143 311.601 32.1698C311.601 34.1966 311.177 35.9878 310.328 37.5432C309.48 39.0516 308.302 40.2535 306.793 41.1491C305.332 41.9975 303.706 42.4217 301.915 42.4217C300.076 42.4217 298.427 41.9975 296.966 41.1491C295.504 40.2535 294.35 39.0516 293.501 37.5432C292.653 35.9878 292.228 34.1966 292.228 32.1698Z" fill="white"/>
<path d="M334.118 63.9861V15.9082H326.412V63.9861H334.118ZM361.056 32.1698C361.056 28.5404 360.325 25.4531 358.864 22.9077C357.403 20.3624 355.47 18.4299 353.067 17.1101C350.663 15.7432 348.047 15.0597 345.219 15.0597C342.438 15.0597 340.01 15.7668 337.936 17.1808C335.909 18.5477 334.33 20.5039 333.199 23.0492C332.115 25.5945 331.573 28.6347 331.573 32.1698C331.573 35.6578 332.115 38.698 333.199 41.2905C334.33 43.8358 335.909 45.8155 337.936 47.2295C340.01 48.5964 342.438 49.2799 345.219 49.2799C348.047 49.2799 350.663 48.62 353.067 47.3002C355.47 45.9333 357.403 43.9772 358.864 41.4319C360.325 38.8395 361.056 35.7521 361.056 32.1698ZM353.137 32.1698C353.137 34.338 352.689 36.1999 351.794 37.7553C350.898 39.2637 349.696 40.4185 348.188 41.2198C346.727 41.9739 345.101 42.351 343.31 42.351C341.848 42.351 340.411 41.9739 338.997 41.2198C337.583 40.4185 336.404 39.2637 335.462 37.7553C334.566 36.247 334.118 34.3852 334.118 32.1698C334.118 29.9545 334.566 28.0926 335.462 26.5843C336.404 25.076 337.583 23.9447 338.997 23.1906C340.411 22.3893 341.848 21.9886 343.31 21.9886C345.101 21.9886 346.727 22.3893 348.188 23.1906C349.696 23.9447 350.898 25.0995 351.794 26.655C352.689 28.1633 353.137 30.0016 353.137 32.1698Z" fill="white"/>
<path d="M399.297 48.4315H407.428L398.378 13.4336L394.348 24.039L399.297 48.4315ZM383.389 41.7854L385.51 50.6233L399.085 25.948L398.378 13.4336L383.389 41.7854ZM385.51 50.6233L387.631 41.7854L372.783 13.4336L372.076 25.948L385.51 50.6233ZM363.804 48.4315H371.935L376.884 24.039L372.783 13.4336L363.804 48.4315Z" fill="white"/>
<path d="M417.464 38.8159C417.464 37.6846 417.723 36.7184 418.242 35.9171C418.807 35.0686 419.632 34.4323 420.716 34.0081C421.848 33.5367 423.215 33.3011 424.817 33.3011C426.797 33.3011 428.541 33.5603 430.049 34.0788C431.558 34.5502 433.042 35.3279 434.503 36.412V32.3819C434.126 31.9106 433.443 31.3685 432.453 30.7558C431.463 30.143 430.214 29.601 428.706 29.1296C427.245 28.6582 425.571 28.4226 423.686 28.4226C420.858 28.4226 418.383 28.8468 416.262 29.6952C414.188 30.5437 412.586 31.7692 411.454 33.3718C410.323 34.9744 409.758 36.8833 409.758 39.0987C409.758 41.3141 410.252 43.1759 411.242 44.6842C412.279 46.1454 413.646 47.2531 415.343 48.0073C417.087 48.7614 419.02 49.1385 421.141 49.1385C423.403 49.1385 425.454 48.7614 427.292 48.0073C429.13 47.206 430.591 46.0747 431.675 44.6135C432.759 43.1052 433.302 41.3141 433.302 39.2401L432.17 35.5636C432.17 37.449 431.793 38.9573 431.039 40.0885C430.285 41.2198 429.248 42.0446 427.928 42.5631C426.608 43.0816 425.124 43.3409 423.474 43.3409C422.343 43.3409 421.329 43.1759 420.434 42.8459C419.538 42.4689 418.807 41.9504 418.242 41.2905C417.723 40.6306 417.464 39.8057 417.464 38.8159ZM415.767 24.4632C416.286 24.1333 417.016 23.7326 417.959 23.2613C418.949 22.7428 420.104 22.295 421.423 21.9179C422.743 21.5408 424.181 21.3523 425.736 21.3523C427.527 21.3523 429.036 21.7765 430.261 22.6249C431.534 23.4262 432.17 24.5811 432.17 26.0894V48.4315H439.665V25.2409C439.665 23.0727 439.076 21.258 437.897 19.7968C436.766 18.2885 435.187 17.1337 433.16 16.3324C431.133 15.5311 428.777 15.1304 426.09 15.1304C423.167 15.1304 420.575 15.5547 418.313 16.4031C416.05 17.2515 414.188 18.1235 412.727 19.0191L415.767 24.4632Z" fill="white"/>
<path d="M444.104 15.9082V22.6249H464.679V15.9082H444.104ZM450.68 17.3222V48.4315H458.174V17.3222H450.68Z" fill="white"/>
<path d="M499.378 22.9785L499.732 13.4336L470.532 41.3612L470.178 50.9061L499.378 22.9785ZM477.673 15.9082H470.178V50.9061L477.673 42.2803V15.9082ZM499.732 13.4336L492.237 22.0593V48.4315H499.732V13.4336Z" fill="white"/>
<path d="M509.521 15.9082V48.4315H517.015V15.9082H509.521ZM528.964 15.9082L514.894 29.3417L530.449 48.4315H539.711L524.298 29.3417L538.297 15.9082H528.964Z" fill="white"/>
<path d="M549.618 38.8159C549.618 37.6846 549.877 36.7184 550.395 35.9171C550.961 35.0686 551.786 34.4323 552.87 34.0081C554.001 33.5367 555.368 33.3011 556.971 33.3011C558.95 33.3011 560.694 33.5603 562.203 34.0788C563.711 34.5502 565.196 35.3279 566.657 36.412V32.3819C566.28 31.9106 565.596 31.3685 564.607 30.7558C563.617 30.143 562.368 29.601 560.859 29.1296C559.398 28.6582 557.725 28.4226 555.839 28.4226C553.011 28.4226 550.537 28.8468 548.416 29.6952C546.342 30.5437 544.739 31.7692 543.608 33.3718C542.477 34.9744 541.911 36.8833 541.911 39.0987C541.911 41.3141 542.406 43.1759 543.396 44.6842C544.433 46.1454 545.8 47.2531 547.497 48.0073C549.241 48.7614 551.173 49.1385 553.294 49.1385C555.557 49.1385 557.607 48.7614 559.445 48.0073C561.284 47.206 562.745 46.0747 563.829 44.6135C564.913 43.1052 565.455 41.3141 565.455 39.2401L564.324 35.5636C564.324 37.449 563.947 38.9573 563.193 40.0885C562.438 41.2198 561.401 42.0446 560.082 42.5631C558.762 43.0816 557.277 43.3409 555.627 43.3409C554.496 43.3409 553.483 43.1759 552.587 42.8459C551.692 42.4689 550.961 41.9504 550.395 41.2905C549.877 40.6306 549.618 39.8057 549.618 38.8159ZM547.921 24.4632C548.439 24.1333 549.17 23.7326 550.113 23.2613C551.102 22.7428 552.257 22.295 553.577 21.9179C554.897 21.5408 556.334 21.3523 557.89 21.3523C559.681 21.3523 561.189 21.7765 562.415 22.6249C563.688 23.4262 564.324 24.5811 564.324 26.0894V48.4315H571.818V25.2409C571.818 23.0727 571.229 21.258 570.051 19.7968C568.92 18.2885 567.34 17.1337 565.314 16.3324C563.287 15.5311 560.93 15.1304 558.243 15.1304C555.321 15.1304 552.729 15.5547 550.466 16.4031C548.204 17.2515 546.342 18.1235 544.881 19.0191L547.921 24.4632Z" fill="white"/>
<path d="M191.365 90.7353L191.719 81.1904L162.519 109.118L162.165 118.663L191.365 90.7353ZM169.66 83.665H162.165V118.663L169.66 110.037V83.665ZM191.719 81.1904L184.224 89.8162V116.188H191.719V81.1904Z" fill="white"/>
<path d="M227.866 99.2197V102.543H237.27C238.212 102.543 239.014 102.637 239.674 102.826C240.381 103.014 240.923 103.297 241.3 103.674C241.724 104.051 242.054 104.475 242.29 104.947C242.525 105.418 242.643 105.936 242.643 106.502C242.643 107.586 242.219 108.529 241.37 109.33C240.522 110.131 239.155 110.532 237.27 110.532H227.866V116.188H239.603C243.327 116.188 245.99 115.34 247.592 113.643C249.242 111.899 250.067 109.802 250.067 107.35C250.067 105.229 249.548 103.58 248.511 102.401C247.474 101.223 246.06 100.398 244.269 99.9267C242.478 99.4553 240.451 99.2197 238.189 99.2197H227.866ZM227.866 100.634H237.482C239.509 100.634 241.347 100.351 242.997 99.7853C244.693 99.1725 246.06 98.277 247.097 97.0986C248.134 95.8731 248.653 94.3412 248.653 92.5029C248.653 90.3818 248.134 88.6849 247.097 87.4123C246.06 86.0925 244.693 85.1498 242.997 84.5842C241.347 83.9714 239.509 83.665 237.482 83.665H227.866V89.3213H236.563C238.024 89.3213 239.155 89.6748 239.956 90.3818C240.805 91.0888 241.229 91.9844 241.229 93.0685C241.229 93.587 241.111 94.0819 240.876 94.5533C240.64 95.0246 240.333 95.4488 239.956 95.8259C239.579 96.203 239.084 96.4858 238.472 96.6744C237.906 96.8629 237.27 96.9572 236.563 96.9572H227.866V100.634ZM223.412 83.665V116.188H230.906V83.665H223.412Z" fill="white"/>
<path d="M288.63 83.665V116.188H296.336V83.665H288.63ZM257.096 83.665V116.188H264.732V83.665H257.096ZM262.399 101.199H271.802C273.499 101.199 274.796 101.576 275.691 102.331C276.587 103.085 277.034 104.169 277.034 105.583C277.034 106.478 276.822 107.256 276.398 107.916C275.974 108.576 275.385 109.071 274.631 109.401C273.876 109.731 272.934 109.896 271.802 109.896H262.399V116.188H272.51C274.772 116.188 276.799 115.788 278.59 114.986C280.381 114.185 281.795 113.007 282.832 111.451C283.869 109.849 284.388 107.893 284.388 105.583C284.388 102.095 283.233 99.5496 280.923 97.947C278.661 96.2973 275.856 95.4724 272.51 95.4724H262.399V101.199Z" fill="white"/>
<path d="M317.433 106.997H328.533V100.28H318.635L317.433 106.997ZM324.503 83.665V116.188H332.21V83.665H324.503ZM312.413 83.665H304.706V92.9978C304.706 96.1559 305.083 98.7719 305.838 100.846C306.592 102.92 307.888 104.475 309.726 105.512C311.612 106.502 314.181 106.997 317.433 106.997L318.635 100.28C317.079 100.28 315.83 100.045 314.888 99.5732C313.992 99.1018 313.356 98.3712 312.979 97.3814C312.602 96.3444 312.413 95.0011 312.413 93.3513V83.665Z" fill="white"/>
<path d="M371.575 90.7353L371.928 81.1904L342.728 109.118L342.374 118.663L371.575 90.7353ZM349.869 83.665H342.374V118.663L349.869 110.037V83.665ZM371.928 81.1904L364.434 89.8162V116.188H371.928V81.1904Z" fill="white"/>
<path d="M387.091 99.9267C387.091 97.8999 387.538 96.1087 388.434 94.5533C389.33 92.9978 390.531 91.7723 392.04 90.8767C393.595 89.9812 395.316 89.5334 397.201 89.5334C398.709 89.5334 400.171 89.7691 401.585 90.2404C402.999 90.7118 404.248 91.3717 405.332 92.2201C406.463 93.0214 407.288 93.9641 407.807 95.0482V86.6346C406.675 85.5033 405.143 84.6077 403.211 83.9479C401.278 83.288 399.157 82.958 396.848 82.958C393.501 82.958 390.484 83.6886 387.798 85.1498C385.158 86.5639 383.061 88.5435 381.505 91.0888C379.997 93.6341 379.243 96.5801 379.243 99.9267C379.243 103.226 379.997 106.172 381.505 108.765C383.061 111.31 385.158 113.313 387.798 114.774C390.484 116.188 393.501 116.895 396.848 116.895C399.157 116.895 401.278 116.565 403.211 115.906C405.143 115.246 406.675 114.35 407.807 113.219V104.805C407.288 105.842 406.487 106.785 405.403 107.633C404.319 108.482 403.069 109.142 401.655 109.613C400.241 110.084 398.757 110.32 397.201 110.32C395.316 110.32 393.595 109.872 392.04 108.977C390.531 108.081 389.33 106.879 388.434 105.371C387.538 103.815 387.091 102.001 387.091 99.9267Z" fill="white"/>
<path d="M447.002 83.665H417.237V103.815C417.237 105.936 416.718 107.374 415.681 108.128C414.691 108.882 413.489 109.259 412.075 109.259V116.188C415.092 116.188 417.519 115.788 419.358 114.986C421.243 114.138 422.61 112.889 423.458 111.239C424.307 109.542 424.731 107.421 424.731 104.876V90.7353H439.508V116.188H447.002V83.665Z" fill="white"/>
<path d="M487.019 90.7353L487.373 81.1904L458.172 109.118L457.819 118.663L487.019 90.7353ZM465.313 83.665H457.819V118.663L465.313 110.037V83.665ZM487.373 81.1904L479.878 89.8162V116.188H487.373V81.1904Z" fill="white"/>
<path d="M492.919 83.665V90.3818H513.494V83.665H492.919ZM499.495 85.0791V116.188H506.989V85.0791H499.495Z" fill="white"/>
<path d="M519.725 101.694H548.289C548.383 101.27 548.431 100.893 548.431 100.563C548.431 100.186 548.431 99.856 548.431 99.5732C548.431 96.1323 547.771 93.1864 546.451 90.7353C545.131 88.2372 543.246 86.3282 540.795 85.0084C538.391 83.6415 535.516 82.958 532.169 82.958C529.105 82.958 526.395 83.5236 524.038 84.6549C521.681 85.7861 519.772 87.3652 518.311 89.392C516.897 91.4188 515.954 93.7755 515.483 96.4623C515.389 97.0279 515.318 97.5935 515.271 98.1591C515.224 98.7247 515.2 99.3139 515.2 99.9267C515.2 103.179 515.884 106.101 517.251 108.694C518.618 111.239 520.55 113.242 523.048 114.704C525.546 116.165 528.469 116.895 531.815 116.895C534.785 116.895 537.26 116.542 539.239 115.835C541.266 115.081 542.963 114.044 544.33 112.724C545.744 111.404 546.993 109.872 548.077 108.128L541.502 105.442C540.889 106.478 540.135 107.398 539.239 108.199C538.344 108.953 537.307 109.542 536.128 109.966C534.997 110.391 533.677 110.603 532.169 110.603C530.331 110.603 528.705 110.226 527.29 109.472C525.924 108.67 524.839 107.492 524.038 105.936C523.284 104.334 522.907 102.331 522.907 99.9267L523.048 97.947C523.048 96.0616 523.449 94.4354 524.25 93.0685C525.052 91.6545 526.136 90.5939 527.503 89.8869C528.869 89.1327 530.401 88.7556 532.098 88.7556C533.748 88.7556 535.138 89.0856 536.27 89.7455C537.401 90.3582 538.273 91.2538 538.886 92.4322C539.546 93.5634 539.97 94.9068 540.158 96.4623H519.725V101.694Z" fill="white"/>
<path d="M586.544 83.665H556.778V103.815C556.778 105.936 556.259 107.374 555.223 108.128C554.233 108.882 553.031 109.259 551.617 109.259V116.188C554.633 116.188 557.061 115.788 558.899 114.986C560.784 114.138 562.151 112.889 563 111.239C563.848 109.542 564.272 107.421 564.272 104.876V90.7353H579.049V116.188H586.544V83.665Z" fill="white"/>
<path d="M597.219 83.665V116.188H604.925V83.665H597.219ZM602.592 101.199H611.925C613.669 101.199 614.965 101.576 615.814 102.331C616.709 103.085 617.157 104.169 617.157 105.583C617.157 106.478 616.945 107.256 616.521 107.916C616.144 108.576 615.555 109.071 614.753 109.401C613.999 109.731 613.056 109.896 611.925 109.896H602.592V116.188H612.703C614.965 116.188 616.992 115.788 618.783 114.986C620.574 114.185 621.988 113.007 623.025 111.451C624.062 109.849 624.581 107.893 624.581 105.583C624.581 102.095 623.426 99.5496 621.116 97.947C618.854 96.2973 616.049 95.4724 612.703 95.4724H602.592V101.199Z" fill="white"/>
<path d="M636.304 102.189H661.192V95.8966H636.304V102.189ZM657.091 83.665V116.188H664.585V83.665H657.091ZM632.981 83.665V116.188H640.476V83.665H632.981Z" fill="white"/>
<path d="M679.147 106.573C679.147 105.442 679.407 104.475 679.925 103.674C680.491 102.826 681.316 102.189 682.4 101.765C683.531 101.294 684.898 101.058 686.501 101.058C688.48 101.058 690.224 101.317 691.733 101.836C693.241 102.307 694.726 103.085 696.187 104.169V100.139C695.81 99.6675 695.126 99.1254 694.136 98.5126C693.147 97.8999 691.898 97.3578 690.389 96.8865C688.928 96.4151 687.255 96.1794 685.369 96.1794C682.541 96.1794 680.067 96.6037 677.946 97.4521C675.872 98.3005 674.269 99.526 673.138 101.129C672.006 102.731 671.441 104.64 671.441 106.856C671.441 109.071 671.936 110.933 672.926 112.441C673.963 113.902 675.329 115.01 677.026 115.764C678.77 116.518 680.703 116.895 682.824 116.895C685.086 116.895 687.137 116.518 688.975 115.764C690.813 114.963 692.275 113.832 693.359 112.37C694.443 110.862 694.985 109.071 694.985 106.997L693.854 103.32C693.854 105.206 693.477 106.714 692.722 107.845C691.968 108.977 690.931 109.802 689.611 110.32C688.292 110.838 686.807 111.098 685.157 111.098C684.026 111.098 683.013 110.933 682.117 110.603C681.221 110.226 680.491 109.707 679.925 109.047C679.407 108.387 679.147 107.563 679.147 106.573ZM677.451 92.2201C677.969 91.8901 678.7 91.4895 679.642 91.0181C680.632 90.4997 681.787 90.0519 683.107 89.6748C684.427 89.2977 685.864 89.1092 687.42 89.1092C689.211 89.1092 690.719 89.5334 691.945 90.3818C693.217 91.1831 693.854 92.3379 693.854 93.8462V116.188H701.348V92.9978C701.348 90.8296 700.759 89.0149 699.581 87.5537C698.449 86.0454 696.87 84.8906 694.843 84.0893C692.817 83.288 690.46 82.8873 687.773 82.8873C684.851 82.8873 682.258 83.3115 679.996 84.16C677.733 85.0084 675.872 85.8804 674.41 86.776L677.451 92.2201Z" fill="white"/>
<path d="M716.959 116.188L727.776 100.068H719.999L708.828 116.188H716.959ZM738.099 116.188V83.665H730.392V116.188H738.099ZM733.22 97.8763H723.746C722.568 97.8763 721.578 97.7349 720.776 97.4521C719.975 97.1693 719.362 96.7451 718.938 96.1794C718.514 95.6138 718.302 94.8597 718.302 93.917C718.302 93.0214 718.514 92.2908 718.938 91.7252C719.362 91.1595 719.975 90.7353 720.776 90.4525C721.578 90.1697 722.568 90.0283 723.746 90.0283H733.22V83.665H723.11C720.894 83.665 718.844 83.995 716.959 84.6549C715.073 85.3148 713.565 86.3753 712.434 87.8365C711.302 89.2506 710.737 91.1595 710.737 93.5634C710.737 95.9673 711.302 97.9234 712.434 99.4318C713.565 100.893 715.073 101.977 716.959 102.684C718.844 103.344 720.894 103.674 723.11 103.674H733.22V97.8763Z" fill="white"/>
<path d="M762.888 83.665V90.3818H783.463V83.665H762.888ZM769.464 85.0791V116.188H776.958V85.0791H769.464Z" fill="white"/>
<path d="M789.694 101.694H818.258C818.352 101.27 818.399 100.893 818.399 100.563C818.399 100.186 818.399 99.856 818.399 99.5732C818.399 96.1323 817.74 93.1864 816.42 90.7353C815.1 88.2372 813.215 86.3282 810.764 85.0084C808.36 83.6415 805.484 82.958 802.138 82.958C799.074 82.958 796.364 83.5236 794.007 84.6549C791.65 85.7861 789.741 87.3652 788.28 89.392C786.866 91.4188 785.923 93.7755 785.452 96.4623C785.358 97.0279 785.287 97.5935 785.24 98.1591C785.193 98.7247 785.169 99.3139 785.169 99.9267C785.169 103.179 785.853 106.101 787.219 108.694C788.586 111.239 790.519 113.242 793.017 114.704C795.515 116.165 798.438 116.895 801.784 116.895C804.754 116.895 807.228 116.542 809.208 115.835C811.235 115.081 812.932 114.044 814.299 112.724C815.713 111.404 816.962 109.872 818.046 108.128L811.471 105.442C810.858 106.478 810.104 107.398 809.208 108.199C808.312 108.953 807.276 109.542 806.097 109.966C804.966 110.391 803.646 110.603 802.138 110.603C800.3 110.603 798.673 110.226 797.259 109.472C795.892 108.67 794.808 107.492 794.007 105.936C793.253 104.334 792.876 102.331 792.876 99.9267L793.017 97.947C793.017 96.0616 793.418 94.4354 794.219 93.0685C795.02 91.6545 796.104 90.5939 797.471 89.8869C798.838 89.1327 800.37 88.7556 802.067 88.7556C803.717 88.7556 805.107 89.0856 806.239 89.7455C807.37 90.3582 808.242 91.2538 808.855 92.4322C809.514 93.5634 809.939 94.9068 810.127 96.4623H789.694V101.694Z" fill="white"/>
<path d="M843.458 83.665L836.317 93.8462L829.317 83.665H820.55L832.286 99.4318L819.843 116.188H828.61L836.317 105.017L844.165 116.188H852.72L840.347 99.4318L852.013 83.665H843.458Z" fill="white"/>
<path d="M860.91 102.189H885.797V95.8966H860.91V102.189ZM881.697 83.665V116.188H889.191V83.665H881.697ZM857.587 83.665V116.188H865.082V83.665H857.587Z" fill="white"/>
<path d="M928.428 90.7353L928.782 81.1904L899.582 109.118L899.228 118.663L928.428 90.7353ZM906.723 83.665H899.228V118.663L906.723 110.037V83.665ZM928.782 81.1904L921.288 89.8162V116.188H928.782V81.1904Z" fill="white"/>
<path d="M938.571 83.665V116.188H946.066V83.665H938.571ZM958.014 83.665L943.944 97.0986L959.499 116.188H968.761L953.348 97.0986L967.347 83.665H958.014Z" fill="white"/>
<path d="M978.668 106.573C978.668 105.442 978.927 104.475 979.446 103.674C980.011 102.826 980.836 102.189 981.92 101.765C983.051 101.294 984.418 101.058 986.021 101.058C988.001 101.058 989.745 101.317 991.253 101.836C992.761 102.307 994.246 103.085 995.707 104.169V100.139C995.33 99.6675 994.647 99.1254 993.657 98.5126C992.667 97.8999 991.418 97.3578 989.91 96.8865C988.448 96.4151 986.775 96.1794 984.89 96.1794C982.062 96.1794 979.587 96.6037 977.466 97.4521C975.392 98.3005 973.789 99.526 972.658 101.129C971.527 102.731 970.961 104.64 970.961 106.856C970.961 109.071 971.456 110.933 972.446 112.441C973.483 113.902 974.85 115.01 976.547 115.764C978.291 116.518 980.223 116.895 982.344 116.895C984.607 116.895 986.657 116.518 988.496 115.764C990.334 114.963 991.795 113.832 992.879 112.37C993.963 110.862 994.505 109.071 994.505 106.997L993.374 103.32C993.374 105.206 992.997 106.714 992.243 107.845C991.489 108.977 990.452 109.802 989.132 110.32C987.812 110.838 986.327 111.098 984.678 111.098C983.546 111.098 982.533 110.933 981.637 110.603C980.742 110.226 980.011 109.707 979.446 109.047C978.927 108.387 978.668 107.563 978.668 106.573ZM976.971 92.2201C977.489 91.8901 978.22 91.4895 979.163 91.0181C980.153 90.4997 981.307 90.0519 982.627 89.6748C983.947 89.2977 985.385 89.1092 986.94 89.1092C988.731 89.1092 990.24 89.5334 991.465 90.3818C992.738 91.1831 993.374 92.3379 993.374 93.8462V116.188H1000.87V92.9978C1000.87 90.8296 1000.28 89.0149 999.101 87.5537C997.97 86.0454 996.391 84.8906 994.364 84.0893C992.337 83.288 989.98 82.8873 987.294 82.8873C984.371 82.8873 981.779 83.3115 979.516 84.16C977.254 85.0084 975.392 85.8804 973.931 86.776L976.971 92.2201Z" fill="white"/>
</svg>
