<svg width="399" height="312" viewBox="0 0 399 312" fill="none" xmlns="http://www.w3.org/2000/svg">
<rect x="399" y="312" width="245" height="312" transform="rotate(-180 399 312)" fill="url(#paint0_linear_1_77)"/>
<path d="M189.29 224.967L38 -37.0739L141.832 -76.936L312.977 224.967L189.29 224.967Z" fill="url(#paint1_linear_1_77)"/>
<path d="M1.6903 197.781L0.733593 200.091L5.35299 202.005L6.3097 199.695L1.6903 197.781ZM6.3097 199.695L17.385 172.957L12.7656 171.043L1.6903 197.781L6.3097 199.695Z" fill="#3E3E3E"/>
<path d="M181.554 197.781L180.597 200.091L185.217 202.005L186.173 199.695L181.554 197.781ZM186.173 199.695L197.249 172.957L192.629 171.043L181.554 197.781L186.173 199.695Z" fill="#3E3E3E"/>
<path d="M61.6449 197.781L60.6882 200.091L65.3076 202.005L66.2643 199.695L61.6449 197.781ZM66.2643 199.695L77.3396 172.957L72.7202 171.043L61.6449 197.781L66.2643 199.695Z" fill="#3E3E3E"/>
<path d="M241.509 197.781L240.552 200.091L245.171 202.005L246.128 199.695L241.509 197.781ZM246.128 199.695L257.203 172.957L252.584 171.043L241.509 197.781L246.128 199.695Z" fill="#3E3E3E"/>
<path d="M121.599 197.781L120.643 200.091L125.262 202.005L126.219 199.695L121.599 197.781ZM126.219 199.695L137.294 172.957L132.675 171.043L121.599 197.781L126.219 199.695Z" fill="#3E3E3E"/>
<path d="M16.6789 197.781L15.7222 200.091L20.3416 202.005L21.2983 199.695L16.6789 197.781ZM21.2983 199.695L32.3736 172.957L27.7542 171.043L16.6789 197.781L21.2983 199.695Z" fill="#3E3E3E"/>
<path d="M196.543 197.781L195.586 200.091L200.205 202.005L201.162 199.695L196.543 197.781ZM201.162 199.695L212.237 172.957L207.618 171.043L196.543 197.781L201.162 199.695Z" fill="#3E3E3E"/>
<path d="M76.6335 197.781L75.6768 200.091L80.2962 202.005L81.2529 199.695L76.6335 197.781ZM81.2529 199.695L92.3282 172.957L87.7088 171.043L76.6335 197.781L81.2529 199.695Z" fill="#3E3E3E"/>
<path d="M256.497 197.781L255.541 200.091L260.16 202.005L261.117 199.695L256.497 197.781ZM261.117 199.695L272.192 172.957L267.573 171.043L256.497 197.781L261.117 199.695Z" fill="#3E3E3E"/>
<path d="M136.588 197.781L135.631 200.091L140.251 202.005L141.208 199.695L136.588 197.781ZM141.208 199.695L152.283 172.957L147.663 171.043L136.588 197.781L141.208 199.695Z" fill="#3E3E3E"/>
<path d="M31.6676 197.781L30.7109 200.091L35.3303 202.005L36.287 199.695L31.6676 197.781ZM36.287 199.695L47.3623 172.957L42.7429 171.043L31.6676 197.781L36.287 199.695Z" fill="#3E3E3E"/>
<path d="M211.531 197.781L210.575 200.091L215.194 202.005L216.151 199.695L211.531 197.781ZM216.151 199.695L227.226 172.957L222.607 171.043L211.531 197.781L216.151 199.695Z" fill="#3E3E3E"/>
<path d="M91.6222 197.781L90.6655 200.091L95.2849 202.005L96.2416 199.695L91.6222 197.781ZM96.2416 199.695L107.317 172.957L102.697 171.043L91.6222 197.781L96.2416 199.695Z" fill="#3E3E3E"/>
<path d="M151.577 197.781L150.62 200.091L155.239 202.005L156.196 199.695L151.577 197.781ZM156.196 199.695L167.271 172.957L162.652 171.043L151.577 197.781L156.196 199.695Z" fill="#3E3E3E"/>
<path d="M46.6562 197.781L45.6995 200.091L50.3189 202.005L51.2756 199.695L46.6562 197.781ZM51.2756 199.695L62.3509 172.957L57.7315 171.043L46.6562 197.781L51.2756 199.695Z" fill="#3E3E3E"/>
<path d="M226.52 197.781L225.563 200.091L230.183 202.005L231.139 199.695L226.52 197.781ZM231.139 199.695L242.215 172.957L237.595 171.043L226.52 197.781L231.139 199.695Z" fill="#3E3E3E"/>
<path d="M106.611 197.781L105.654 200.091L110.274 202.005L111.23 199.695L106.611 197.781ZM111.23 199.695L122.306 172.957L117.686 171.043L106.611 197.781L111.23 199.695Z" fill="#3E3E3E"/>
<path d="M166.565 197.781L165.609 200.091L170.228 202.005L171.185 199.695L166.565 197.781ZM171.185 199.695L182.26 172.957L177.641 171.043L166.565 197.781L171.185 199.695Z" fill="#3E3E3E"/>
<defs>
<linearGradient id="paint0_linear_1_77" x1="644" y1="464" x2="399" y2="464" gradientUnits="userSpaceOnUse">
<stop stop-color="#282828" stop-opacity="0.1"/>
<stop offset="1" stop-color="#545454"/>
</linearGradient>
<linearGradient id="paint1_linear_1_77" x1="241.711" y1="205.912" x2="85.5671" y2="-64.5367" gradientUnits="userSpaceOnUse">
<stop stop-color="#6162FF"/>
<stop offset="1" stop-color="#61FFBD" stop-opacity="0"/>
</linearGradient>
</defs>
</svg>
