<svg id="Слой_1" data-name="Слой 1" xmlns="http://www.w3.org/2000/svg" viewBox="0 0 1000.15 1000.15"><defs><style>.cls-1{fill:#6162ff;}</style></defs><path class="cls-1" d="M-.15-.34V999.81H1000V-.34Zm932,932H68V67.8H931.86Z" transform="translate(0.15 0.34)"/><path class="cls-1" d="M700.24,158.74v195H817.62v-195Zm39.77,156v-117h38.82v117Z" transform="translate(0.15 0.34)"/><path class="cls-1" d="M700.24,548.73v195H816.65v-195Zm77.62,156h-38.8v-117h38.8Z" transform="translate(0.15 0.34)"/><polygon class="cls-1" points="260.94 549.07 260.94 588.06 222.14 588.06 222.14 705.05 260.94 705.05 260.94 744.04 183.34 744.04 183.34 549.07 260.94 549.07"/><rect class="cls-1" x="260.96" y="549.07" width="38.8" height="194.97"/><polygon class="cls-1" points="300.33 315.08 300.33 354.07 261.33 354.07 261.33 353.68 222.34 353.68 222.34 354.07 183.34 354.07 183.34 315.08 222.34 315.08 222.34 198.09 183.34 198.09 183.34 159.08 261.33 159.08 261.33 315.08 300.33 315.08"/><rect class="cls-1" x="222.34" y="353.68" width="38.99" height="0.4"/><rect class="cls-1" x="222.34" y="353.68" width="38.99" height="0.4"/><polygon class="cls-1" points="559.36 392.69 559.36 431.69 442.35 431.69 442.35 392.69 481.35 392.69 481.35 275.69 442.35 275.69 442.35 236.69 519.37 236.69 519.37 275.69 520.34 275.69 520.34 392.69 559.36 392.69"/><rect class="cls-1" x="519.37" y="236.69" width="0.97" height="38.99"/><polygon class="cls-1" points="558.37 803.02 558.37 842.01 441.38 842.01 441.38 803.02 480.38 803.02 480.38 686.03 441.38 686.03 441.38 647.04 519.37 647.04 519.37 803.02 558.37 803.02"/></svg>